<svg width="250" height="80" viewBox="0 0 250 80" fill="none" xmlns="http://www.w3.org/2000/svg">
<g clip-path="url(#clip0_9_56)">
<path d="M50.4711 20.526H62.1428C65.5471 20.526 68.0111 21.264 69.5349 22.7401C71.0911 24.1853 71.8693 26.5224 71.8693 29.7512V31.135C71.8693 34.3638 71.0911 36.7163 69.5349 38.1923C68.0111 39.6376 65.5471 40.3602 62.1428 40.3602H41.7173V8.07196H68.7082V14.5296H50.4711V20.526ZM63.1155 29.7512C63.1155 27.9062 62.1428 26.9837 60.1975 26.9837H50.4711V33.9026H60.1975C62.1428 33.9026 63.1155 32.9801 63.1155 31.135V29.7512ZM97.3989 21.2179C96.1025 21.2179 95.4536 21.8329 95.4536 23.0629V25.5999H103.721V23.0629C103.721 21.8329 103.073 21.2179 101.777 21.2179H97.3989ZM111.259 39.899C105.002 40.514 99.3282 40.8215 94.2378 40.8215C92.0334 40.8215 90.2667 40.1911 88.9369 38.9303C87.6079 37.6696 86.943 35.9936 86.943 33.9026V22.8323C86.943 20.526 87.6238 18.7271 88.9855 17.4356C90.3799 16.1133 92.2925 15.4521 94.7241 15.4521H104.451C106.882 15.4521 108.779 16.1133 110.141 17.4356C111.535 18.7271 112.232 20.526 112.232 22.8323V31.3657H95.4536V33.2107C95.4536 33.672 95.6162 34.0563 95.9399 34.3638C96.2644 34.6714 96.6694 34.8251 97.1557 34.8251C100.365 34.8251 105.067 34.5945 111.259 34.1332V39.899ZM131.179 40.8215C129.786 40.8215 128.164 40.6678 126.316 40.3602V34.3638H128.261C129.494 34.3638 130.142 33.7489 130.207 32.5188L131.179 15.9134H154.524V40.3602H146.013V22.1404H139.204L138.475 33.9026C138.345 35.9936 137.615 37.6696 136.286 38.9303C134.957 40.1911 133.255 40.8215 131.179 40.8215ZM181.254 34.3638C182.972 34.3638 184.917 34.0563 187.09 33.4413V30.6738H180.038C179.552 30.6738 179.147 30.8275 178.822 31.135C178.498 31.4426 178.336 31.8269 178.336 32.2882V32.7494C178.336 33.2107 178.498 33.5951 178.822 33.9026C179.147 34.2101 179.552 34.3638 180.038 34.3638H181.254ZM172.257 16.3747C178.19 15.7597 183.539 15.4521 188.305 15.4521C190.51 15.4521 192.277 16.0826 193.606 17.3433C194.935 18.6041 195.6 20.28 195.6 22.3711V40.3602H188.062L187.576 38.0539C186.052 39.0072 184.479 39.7145 182.859 40.1757C181.27 40.6062 179.925 40.8215 178.822 40.8215H177.12C174.916 40.8215 173.148 40.1911 171.819 38.9303C170.49 37.6696 169.825 35.9936 169.825 33.9026V31.8269C169.825 29.7359 170.49 28.0599 171.819 26.7992C173.148 25.5384 174.916 24.908 177.12 24.908H187.09V23.0629C187.09 22.6017 186.928 22.2173 186.603 21.9098C186.279 21.6023 185.874 21.4485 185.387 21.4485C183.28 21.4485 180.946 21.5408 178.384 21.7253C175.856 21.9098 173.813 22.0482 172.257 22.1404V16.3747ZM236.925 15.9134V40.3602H228.414V32.7494H224.28L219.66 40.3602H210.663L215.527 32.2882C214.165 31.8269 213.095 31.0428 212.317 29.9357C211.539 28.8287 211.15 27.4603 211.15 25.8305V22.8323C211.15 20.7413 211.814 19.0653 213.144 17.8046C214.473 16.5438 216.239 15.9134 218.444 15.9134H236.925ZM221.362 21.6792C220.876 21.6792 220.47 21.8329 220.147 22.1404C219.822 22.448 219.66 22.8323 219.66 23.2936V25.3693C219.66 25.8305 219.822 26.2149 220.147 26.5224C220.47 26.8299 220.876 26.9837 221.362 26.9837H228.414V21.6792H221.362Z" fill="#FCFCFC"/>
<path d="M17.3253 45.8378C17.8319 45.8378 18.7437 45.9339 20.0608 46.1261V50.018H18.845C18.5411 50.018 18.2675 50.1141 18.0243 50.3063C17.7812 50.4793 17.5988 50.6715 17.4772 50.8829L14.5897 56.0721L20.5167 66.3063H14.7417L10.0304 58.0901H7.29486V66.3063H1.82373V46.1261H7.29486V54.054H10.0304L13.0699 48.5766C13.5158 47.7694 14.0629 47.1159 14.7113 46.6162C15.38 46.0973 16.2513 45.8378 17.3253 45.8378ZM39.2038 54.9189C38.1299 54.9189 36.9141 55.1111 35.5564 55.4955V62.4144H40.1157C40.9262 62.4144 41.3315 62.03 41.3315 61.2613V55.9279C41.3315 55.6396 41.2302 55.3994 41.0275 55.2072C40.8249 55.015 40.5716 54.9189 40.2677 54.9189H39.2038ZM35.5564 66.3063V71.2072H30.2373V51.027H34.9485L35.2525 52.4685C36.2048 51.8726 37.1775 51.4402 38.1704 51.1712C39.1835 50.8829 40.0346 50.7387 40.7236 50.7387H42.0914C43.4692 50.7387 44.5737 51.1328 45.4044 51.9207C46.2352 52.7087 46.6506 53.7562 46.6506 55.0631V61.6937C46.6506 63.1351 46.215 64.269 45.3436 65.0955C44.4926 65.9027 43.3072 66.3063 41.7874 66.3063H35.5564ZM68.3796 54.3423C67.569 54.3423 67.1638 54.7267 67.1638 55.4955V57.0811H72.3309V55.4955C72.3309 54.7267 71.9257 54.3423 71.1152 54.3423H68.3796ZM77.0418 66.018C73.1313 66.4024 69.5853 66.5946 66.4039 66.5946C65.026 66.5946 63.9216 66.2006 63.0908 65.4126C62.2601 64.6246 61.8446 63.5771 61.8446 62.2703V55.3513C61.8446 53.9099 62.2702 52.7856 63.1212 51.9784C63.9926 51.1519 65.1881 50.7387 66.7078 50.7387H72.7869C74.3066 50.7387 75.4921 51.1519 76.3427 51.9784C77.2143 52.7856 77.6497 53.9099 77.6497 55.3513V60.6847H67.1638V61.8378C67.1638 62.1261 67.2651 62.3663 67.4677 62.5586C67.6704 62.7508 67.9237 62.8468 68.2276 62.8468C70.2337 62.8468 73.1719 62.7027 77.0418 62.4144V66.018ZM109.249 51.027V66.3063H103.93V54.9189H98.459V66.3063H93.1398V51.027H109.249ZM141.464 61.982C141.464 63.4234 141.029 64.5573 140.157 65.3838C139.306 66.191 138.121 66.5946 136.601 66.5946H129.61C128.09 66.5946 126.895 66.191 126.024 65.3838C125.173 64.5573 124.747 63.4234 124.747 61.982V55.3513C124.747 53.9099 125.173 52.7856 126.024 51.9784C126.895 51.1519 128.09 50.7387 129.61 50.7387H136.601C138.121 50.7387 139.306 51.1519 140.157 51.9784C141.029 52.7856 141.464 53.9099 141.464 55.3513V61.982ZM136.145 55.7838C136.145 55.015 135.74 54.6306 134.929 54.6306H131.282C130.472 54.6306 130.066 55.015 130.066 55.7838V61.5495C130.066 62.3183 130.472 62.7027 131.282 62.7027H134.929C135.74 62.7027 136.145 62.3183 136.145 61.5495V55.7838ZM171.249 66.018C167.459 66.4024 164.116 66.5946 161.218 66.5946C159.84 66.5946 158.736 66.2006 157.905 65.4126C157.074 64.6246 156.659 63.5771 156.659 62.2703V55.6396C156.659 54.1982 157.084 53.0739 157.935 52.2667C158.806 51.4402 160.002 51.027 161.522 51.027H171.249V54.9189H163.194C162.383 54.9189 161.978 55.3033 161.978 56.0721V61.6937C161.978 61.982 162.079 62.2222 162.282 62.4144C162.484 62.6066 162.738 62.7027 163.041 62.7027C164.866 62.7027 167.601 62.5586 171.249 62.2703V66.018ZM195.559 54.9189V66.3063H190.239V54.9189H185.224V51.027H200.574V54.9189H195.559ZM215.175 66.3063V51.027H220.494V55.7838H226.725C228.103 55.7838 229.207 56.1778 230.038 56.9658C230.869 57.7537 231.284 58.8012 231.284 60.1081V61.982C231.284 63.2889 230.869 64.3364 230.038 65.1243C229.207 65.9123 228.103 66.3063 226.725 66.3063H215.175ZM224.901 62.7027C225.205 62.7027 225.459 62.6066 225.661 62.4144C225.864 62.2222 225.965 61.982 225.965 61.6937V60.3964C225.965 60.1081 225.864 59.8679 225.661 59.6757C225.459 59.4835 225.205 59.3874 224.901 59.3874H220.494V62.7027H224.901Z" fill="#F2C6A0"/>
<path d="M41.7933 73.5134H237.082V77.117H41.7933V73.5134Z" fill="#FCFCFC"/>
<path d="M53.1915 -6.10352e-05H248.48V3.60354H53.1915V-6.10352e-05Z" fill="#FCFCFC"/>
<path d="M244.681 2.88281H75.9878V7.20714H244.681V2.88281Z" fill="#F2C6A0"/>
<path d="M218.845 75.6756H46.3525V79.9999H218.845V75.6756Z" fill="#F2C6A0"/>
<path d="M245.441 15.8558V73.5134H250V15.8558H245.441Z" fill="#FCFCFC"/>
<path d="M244.681 23.7838H247.72V71.3513H244.681V23.7838Z" fill="#F2C6A0"/>
<path d="M3.42033 7.93028L1.54419 7.92786L1.51977 30.647L3.39591 30.6495L3.42033 7.93028Z" fill="#FCFCFC"/>
<path d="M5.36594 16.1781L5.36414 17.8596L29.6807 17.8911L29.6825 16.2095L5.36594 16.1781Z" fill="#FCFCFC"/>
<path d="M11.8388 20.2756H7.14844V25.4206H11.8388V20.2756Z" fill="#FCFCFC"/>
<path d="M5.27642 31.6111L5.27625 30.5831L29.6652 35.7275L29.6653 36.7558L5.27642 31.6111Z" fill="#FCFCFC"/>
<path d="M33.4345 12.0852L31.5583 12.0828L31.5318 36.7785L33.4079 36.7809L33.4345 12.0852Z" fill="#FCFCFC"/>
<path d="M8.83785 7.93729L1.54419 7.92786L1.54198 9.98648L8.83563 9.99592L8.83785 7.93729Z" fill="#FCFCFC"/>
<path d="M19.3496 7.95252L12.7831 7.94403L12.7809 10.0027L19.3474 10.0112L19.3496 7.95252Z" fill="#FCFCFC"/>
<path d="M29.6869 7.96204L23.1204 7.95355L23.1181 10.0122L29.6846 10.0207L29.6869 7.96204Z" fill="#FCFCFC"/>
<path d="M9.033 7.94646L7.15686 7.94403L7.15244 12.06L9.02857 12.0624L9.033 7.94646Z" fill="#FCFCFC"/>
<path d="M19.3521 7.94646L17.476 7.94403L17.4715 12.06L19.3477 12.0624L19.3521 7.94646Z" fill="#FCFCFC"/>
<path d="M24.9965 7.95598L23.1204 7.95355L23.1159 12.0695L24.9921 12.0719L24.9965 7.95598Z" fill="#FCFCFC"/>
<path d="M29.6863 7.96196L27.8102 7.95953L27.8035 14.1335L29.6797 14.1359L29.6863 7.96196Z" fill="#FCFCFC"/>
<path d="M14.6617 7.94646L12.7855 7.94403L12.7811 12.06L14.6572 12.0624L14.6617 7.94646Z" fill="#FCFCFC"/>
<path d="M24.9781 12.0699L17.4735 12.0602L17.4713 14.1189L24.9759 14.1286L24.9781 12.0699Z" fill="#FCFCFC"/>
<path d="M14.6593 12.0699L7.15479 12.0602L7.15257 14.1189L14.6571 14.1286L14.6593 12.0699Z" fill="#FCFCFC"/>
<path d="M33.4346 12.0855L27.8102 12.0782L27.808 14.1368L33.4324 14.1441L33.4346 12.0855Z" fill="#FCFCFC"/>
<path fill-rule="evenodd" clip-rule="evenodd" d="M29.6662 19.2632H17.4713V32.1255L29.6662 34.698V19.2632ZM28.7279 20.292H18.4092V31.309L28.7279 33.3846V20.292Z" fill="#FCFCFC"/>
<path fill-rule="evenodd" clip-rule="evenodd" d="M19.3473 21.321H27.7899V32.1254L19.3473 30.5819V21.321ZM23.1043 26.4658L24.0421 26.4672L24.9757 30.0673L22.1625 29.7213L23.1043 26.4658ZM24.9757 24.9227C24.9757 25.7751 24.3457 26.4662 23.5686 26.4662C22.7915 26.4662 22.1615 25.7751 22.1615 24.9227C22.1615 24.0703 22.7915 23.3792 23.5686 23.3792C24.3457 23.3792 24.9757 24.0703 24.9757 24.9227Z" fill="#FCFCFC"/>
</g>
<defs>
<clipPath id="clip0_9_56">
<rect width="250" height="80" fill="white"/>
</clipPath>
</defs>
</svg>
